# xmcd
#
# Track frame offsets: 
#        150
#        27587
#        57290
#        82276
#        107270
#        129890
#        154787
#        175152
#        210760
#        240134
#        272775
#        300913
#        331331
#
# Disc length: 4614 seconds
#
# Revision: 3
# Processed by: cddbd v1.5.2PL0 Copyright (c) Steve Scherf et al.
# Submitted via: ExactAudioCopy v1.0b3
#
DISCID=9a12040d
DTITLE=Various Artist - The Underground Sound Of Madrid 2005 CD2
DYEAR=2005
DGENRE=House
TTITLE0=Chritian De Hugo - Set Yourself Free
TTITLE1=Mr Free - Thank You For Everything
TTITLE2=Mike Viera - Guerrilla Urbana
TTITLE3=D-Formation - The Drummers
TTITLE4=Sergio Fernandez and Mario Plaza - Expreso Solar
TTITLE5=Adolf Marsan - Cead Mil Failte
TTITLE6=Chus and Ceballos - Iberican Sound 2005 rmx
TTITLE7=Adolf Marsan - Who's Feeling This One
TTITLE8=Sergio Fernandez and Mario Plaza - La Tormenta
TTITLE9=D-Formation - The Third Dimension (Calderone rmx)
TTITLE10=Roman Lieske - Flye Song
TTITLE11=Mr Free - Licantropo
TTITLE12=D-Formation - Sings and Portents (Piliavin and Zimbardo rmx)
EXTD=
EXTT0=
EXTT1=
EXTT2=
EXTT3=
EXTT4=
EXTT5=
EXTT6=
EXTT7=
EXTT8=
EXTT9=
EXTT10=
EXTT11=
EXTT12=
PLAYORDER=
